<svg xmlns="http://www.w3.org/2000/svg" xmlns:xlink="http://www.w3.org/1999/xlink" width="745" height="606" viewBox="0 0 745 606">
  <defs>
    <clipPath id="clip-path">
      <rect id="Rectangle_9" data-name="Rectangle 9" width="745" height="606" transform="translate(0 0.029)" fill="#fff"/>
    </clipPath>
  </defs>
  <g id="Mask_Group_1" data-name="Mask Group 1" transform="translate(0 -0.029)" clip-path="url(#clip-path)">
    <g id="undraw_Mention_re_k5xc" transform="translate(128.05 43.327)">
      <path id="Path_57" data-name="Path 57" d="M526.288,1001.893H540.3l6.668-62.491H526.285Z" transform="translate(-271.171 -456.379)" fill="#ffb8b8"/>
      <path id="Path_58" data-name="Path 58" d="M0,0H44.051V19.673H17.02C7.62,19.673,0,10.865,0,0Z" transform="translate(296.162 560.56) rotate(179.997)" fill="#2f2e41"/>
      <path id="Path_59" data-name="Path 59" d="M259.442,986.321l13.726,3.28,17.478-59.635-20.258-4.842Z" transform="translate(-133.679 -450.101)" fill="#ffb8b8"/>
      <path id="Path_60" data-name="Path 60" d="M0,0,44.333,1.362l.526,19.564-27.2-.836C8.195,19.8.291,10.8,0,0H0Z" transform="matrix(-0.979, -0.202, 0.202, -0.979, 163.326, 560.555)" fill="#2f2e41"/>
      <path id="Path_61" data-name="Path 61" d="M1113.2,1145.188a14.563,14.563,0,0,1-3.273-10.589,13.8,13.8,0,0,1,4.922-9.7l-10.877-45.519,20.2,7.568,7.232,42.065c3,5.816,1.758,13.3-2.885,17.43A10.445,10.445,0,0,1,1113.2,1145.188Z" transform="translate(-949.421 -810.03)" fill="#ffb8b8"/>
      <path id="Path_62" data-name="Path 62" d="M1172.267,1335.923c-2.527,0-4.681-2.116-5.081-5l-26.123-166.372a1.857,1.857,0,0,0-1.477-1.665,1.691,1.691,0,0,0-1.792,1.179L1079.6,1319.694c-1.072,2.825-3.827,4.244-6.361,3.278l-20.442-7.939a5.489,5.489,0,0,1-3.039-3.161,6.8,6.8,0,0,1-.086-4.724l28.135-79.661,23.488-120.2.166-.146c.453-.4,45.638-39.381,76.516-8.2,28.256,28.535,23,191.6,21.657,223.993a5.756,5.756,0,0,1-3.909,5.481l-22.21,7.326a4.567,4.567,0,0,1-1.248.176Z" transform="translate(-921.244 -813.321)" fill="#2f2e41"/>
      <ellipse id="Ellipse_13" data-name="Ellipse 13" cx="28.08" cy="32.457" rx="28.08" ry="32.457" transform="translate(178.663 88.073)" fill="#ffb8b8"/>
      <path id="Path_63" data-name="Path 63" d="M1314.461,1119.244a14.562,14.562,0,0,1-3.273-10.589,13.8,13.8,0,0,1,4.922-9.7l-10.876-45.519,20.2,7.568,7.232,42.065c3,5.816,1.758,13.3-2.885,17.43a10.444,10.444,0,0,1-15.314-1.258Z" transform="translate(-1053.12 -798.623)" fill="#ffb8b8"/>
      <path id="Path_64" data-name="Path 64" d="M1139.9,1034.1a2.651,2.651,0,0,1-1.136-.261c-11.859-5.571-2.4-114.328-1.995-118.955l.045-.2q.44-1.16.889-2.274c5.992-15.4,19.847-24.63,34.38-22.9,14.757,1.311,27.191,13.245,31.018,29.77l21.973,93.055a6.614,6.614,0,0,1-1.238,5.672,4.715,4.715,0,0,1-4.843,1.7c-17.1-4.414-58.527-12.249-73.972,10.265C1143.123,1032.737,1141.436,1034.1,1139.9,1034.1Z" transform="translate(-964.279 -726.455)" fill="#adc4fb"/>
      <path id="Path_65" data-name="Path 65" d="M1277.274,1028.271a4.538,4.538,0,0,1-1.656-.317,5.437,5.437,0,0,1-3.008-3.108l-19.123-47.123-18.607-61.911a16.294,16.294,0,0,1,3.251-15.432h0a11.564,11.564,0,0,1,11.1-3.755,13.145,13.145,0,0,1,9.114,8.232L1283.1,966.69l19.319,40.335a6.779,6.779,0,0,1,.424,4.6,5.825,5.825,0,0,1-2.552,3.559l-20.656,12.416A4.578,4.578,0,0,1,1277.274,1028.271Z" transform="translate(-1016.51 -729.558)" fill="#adc4fb"/>
      <path id="Path_66" data-name="Path 66" d="M1120.618,1046.015a4.437,4.437,0,0,1-.554-.034l-23.151-2.838a5.02,5.02,0,0,1-3.524-2.271,6.644,6.644,0,0,1-1.023-4.511l6.577-51.491,14.074-63.488c1.241-5.571,5.184-9.789,10.085-10.789h0a11.609,11.609,0,0,1,11.048,3.957,16.1,16.1,0,0,1,3.664,12.681l-8.909,67.352-3.17,45.958C1125.522,1043.625,1123.3,1046.006,1120.618,1046.015Z" transform="translate(-943.41 -735.718)" fill="#adc4fb"/>
      <path id="Path_67" data-name="Path 67" d="M1164.013,756.566l23.336-1.964c1.62-12.558-4.388-24.771-14.553-29.583-9.947-4.367-22.292.484-26.114,7.441-13.784-1.383-26.865,7.257-32.834,21.685s-3.572,31.621,6.013,43.154,24.352,14.988,37.064,8.673C1147.295,790.348,1152.238,765.515,1164.013,756.566Z" transform="translate(-952.834 -653.489)" fill="#333"/>
      <path id="Path_68" data-name="Path 68" d="M1046.1,743.98c-7.241-7.647-16.092-13.76-25.83-15.111a26.134,26.134,0,0,0-25.985,12.076c-5.607,9.3-4.63,23.762,3.257,30.5,6.622,5.66,9.647,15.369,7.667,24.609s-8.576,16.2-16.717,17.629c-14.48,2.549-25.383,19.795-24.3,36.678s13.053,31.6,27.328,35.391,29.9-2.727,39.858-15.136,14.425-30.027,13.29-46.906-7.546-32.959-16.763-46.117c-2.5-3.573-.623-9.239,2.593-11.944s7.311-3.461,11.074-4.947,7.648-4.283,8.516-8.77S1046.556,742.21,1046.1,743.98Z" transform="translate(-877.359 -655.803)" fill="#333"/>
      <path id="Path_70" data-name="Path 70" d="M1801.7,736.141a22.262,22.262,0,0,1-17.627-8.867c-5.221-6.59-7.776-16.147-7.009-26.221a42.942,42.942,0,0,1,9.232-24.008c5.149-6.439,12.366-10.14,19.951-10.23a23.4,23.4,0,0,1,18.466,9.408,37.116,37.116,0,0,1,7.137,25.681h0c-.782,10.238-4.222,18.933-9.95,25.145A27.312,27.312,0,0,1,1801.7,736.141Zm4.547-59.636c-10.6,0-19.746,11.156-20.831,25.4-.562,7.374,1.2,14.236,4.839,18.827a14.247,14.247,0,0,0,11.445,5.721c9.885,0,20.459-7.854,21.8-25.4h0a26.436,26.436,0,0,0-4.969-18.285,15.567,15.567,0,0,0-12.282-6.263Zm21.427,24.972Z" transform="translate(-1387.41 -631.032)" fill="#1e90ff"/>
      <path id="Path_71" data-name="Path 71" d="M1808.522,708.189a13.86,13.86,0,0,1-2.788-.276,18.13,18.13,0,0,1-11.977-9c-2.978-5.126-4.236-11.995-3.637-19.864l2.735-35.875c.2-2.666,2.237-4.636,4.544-4.4s4.011,2.586,3.808,5.252l-2.734,35.875c-.783,10.286,2.479,17.191,8.725,18.472,2.144.439,6-.242,9.8-3.609,3.882-3.438,8.739-10.544,9.83-24.871,1.253-16.437-2.38-30.547-10.509-40.806-8.521-10.756-21.42-16.44-37.3-16.44-29.194,0-55.023,27.444-57.578,61.177a67.787,67.787,0,0,0,1.17,18.945c.542,2.6-.843,5.219-3.094,5.845s-4.515-.975-5.057-3.576a78.939,78.939,0,0,1-1.371-22.059c3.456-39.277,31.78-69.359,65.93-70.022,18.3,0,33.334,6.773,43.486,19.587,9.619,12.141,14.121,29.26,12.677,48.2-1.359,17.838-7.865,27.092-13.083,31.713a21.11,21.11,0,0,1-13.572,5.734Z" transform="translate(-1354.391 -602.954)" fill="#1e90ff"/>
      <path id="Path_72" data-name="Path 72" d="M1787.351,835.228c-13.759.127-27.087-5.544-37.491-15.953a5.387,5.387,0,0,1-.38-6.838A3.811,3.811,0,0,1,1755.4,812c8.874,8.852,20.233,13.666,31.955,13.539,9.4,0,15.086-.726,23.941-5.026,2.134-1.037,4.592.123,5.488,2.59a5.145,5.145,0,0,1-2.241,6.344C1804.415,834.362,1797.706,835.228,1787.351,835.228Z" transform="translate(-1372.73 -694.338)" fill="#1e90ff"/>
      <path id="Path_73" data-name="Path 73" d="M1221.872,1599.251H786.284a1.335,1.335,0,0,1,0-2.643h435.588a1.335,1.335,0,0,1,0,2.643Z" transform="translate(-785.14 -1037.45)" fill="#ccc"/>
    </g>
  </g>
</svg>
