<svg xmlns="http://www.w3.org/2000/svg" width="122" height="104.307" viewBox="0 0 122 104.307">
  <path id="user" d="M46.581,10.412c-6.886,3.985-8.737,10.294-8.4,13.651.434,4.106,1.5,9.451,1.5,9.451s-2.121.9-2.121,4.5C38.3,47.066,42.2,43.16,43,47.129c1.925,9.561,6.324,7.859,6.324,13.077,0,8.692-4.609,12.755-19,17.573C15.884,82.617,1,88.7,1,99.246v5.271H123V99.246c0-10.542-14.891-16.629-29.334-21.463-14.389-4.817-18.985-8.876-18.985-17.573,0-5.218,4.385-3.516,6.317-13.077.807-3.969,4.69-.063,5.443-9.113,0-3.605-2.128-4.5-2.128-4.5s1.071-5.345,1.5-9.451c.441-4.306-2.7-13.5-15.589-16.318C67.964,5.959,66.439,3.107,73.38.245,58.2-.308,54.666,5.869,46.581,10.412Z" transform="translate(-1 -0.21)" fill="#333"/>
</svg>
