<svg xmlns="http://www.w3.org/2000/svg" width="966" height="615.391" viewBox="0 0 966 615.391">
  <g id="undraw_Relaxing_at_home_re_mror" transform="translate(-32.335)">
    <ellipse id="Ellipse_1" data-name="Ellipse 1" cx="27.279" cy="4.822" rx="27.279" ry="4.822" transform="translate(898.95 604.542)" fill="#f2f2f2"/>
    <rect id="Rectangle_6" data-name="Rectangle 6" width="2.273" height="50.63" transform="translate(955.782 148.875)" fill="#e3f0ff"/>
    <rect id="Rectangle_7" data-name="Rectangle 7" width="13.64" height="499.064" transform="translate(919.41 116.328)" fill="#e3f0ff"/>
    <path id="Path_1" data-name="Path 1" d="M1052.895,350.255H928a9.431,9.431,0,0,1-7.243-3.466,10.665,10.665,0,0,1-2.344-8.052l15.913-135.012a9.893,9.893,0,0,1,9.587-8.976h93.063a9.893,9.893,0,0,1,9.587,8.976l15.913,135.012a10.663,10.663,0,0,1-2.344,8.052,9.432,9.432,0,0,1-7.243,3.465Z" transform="translate(-64.218 -194.75)" fill="#e3f0ff"/>
    <ellipse id="Ellipse_2" data-name="Ellipse 2" cx="7.956" cy="8.438" rx="7.956" ry="8.438" transform="translate(948.962 191.067)" fill="#e3f0ff"/>
    <path id="Path_2" data-name="Path 2" d="M283.094,608.662c-5.742,21.127-22.51,35.917-40,48.481q-3.663,2.632-7.329,5.143c-.017.008-.034.024-.05.032-.118.08-.235.16-.345.241l-1.509,1.031.275.131s.27.152-.025.024c-.088-.039-.18-.074-.268-.113-10.161-4.346-20.5-9.012-28.289-17.154-8.078-8.454-12.8-21.715-8.424-32.822a21.6,21.6,0,0,1,2.165-4.121c.355-.538.737-1.054,1.135-1.559A20.794,20.794,0,0,1,220.743,600a21.836,21.836,0,0,1,16.5,14.884c1.285-12.688-8.58-23.317-18.074-31.159s-20.29-16.374-22.127-28.992a25.617,25.617,0,0,1,5.47-19.286c.13-.166.259-.332.393-.493a30.8,30.8,0,0,1,20.1-11.438c14.564-1.605,28.711,6.57,39.291,17.31C279.328,558.1,289.622,584.641,283.094,608.662Z" transform="translate(-162.991 -127.242)" fill="#e3f0ff"/>
    <path id="Path_3" data-name="Path 3" d="M255.259,579.054a58.092,58.092,0,0,1,6.37,14.9,51.783,51.783,0,0,1,1.6,14.462,65.6,65.6,0,0,1-7.748,28.551,90.076,90.076,0,0,1-12.843,18.2q-3.663,2.632-7.329,5.143c-.017.008-.034.024-.05.032-.118.08-.235.16-.345.241l-1.509,1.03s.545.283.249.155c-.088-.039-.18-.074-.268-.113a51.616,51.616,0,0,0-15.059-42.976,46.691,46.691,0,0,0-19.488-11.122c.355-.538.737-1.054,1.135-1.559a47.493,47.493,0,0,1,8.123,3.26,49.624,49.624,0,0,1,21.8,22.294,54.987,54.987,0,0,1,5.368,28.692c.418-.4.835-.811,1.241-1.217,7.721-7.635,14.579-16.4,19.22-26.511a61.323,61.323,0,0,0,5.763-27.614c-.379-10.431-4.3-20.093-9.972-28.5a119.25,119.25,0,0,0-21.835-23.867,129.884,129.884,0,0,0-27.157-17.782,1.023,1.023,0,0,1-.474-1.281.838.838,0,0,1,.393-.493.66.66,0,0,1,.605.027c1.2.585,2.388,1.178,3.568,1.8a131.985,131.985,0,0,1,27.35,19.134C242.017,561.213,249.6,569.53,255.259,579.054Z" transform="translate(-162.53 -125.268)" fill="#fff"/>
    <path id="Path_4" data-name="Path 4" d="M200.21,638.25h62.928a4.752,4.752,0,0,1,3.65,1.746,5.373,5.373,0,0,1,1.181,4.057l-8.018,68.029a4.985,4.985,0,0,1-4.831,4.523H208.229a4.985,4.985,0,0,1-4.831-4.523l-8.018-68.029A5.374,5.374,0,0,1,196.561,640a4.752,4.752,0,0,1,3.65-1.746Z" transform="translate(-163.008 -103.625)" fill="#e3f0ff"/>
    <ellipse id="Ellipse_3" data-name="Ellipse 3" cx="7.875" cy="8.352" rx="7.875" ry="8.352" transform="translate(234.505 596.798)" fill="#ccc"/>
    <ellipse id="Ellipse_4" data-name="Ellipse 4" cx="7.875" cy="8.352" rx="7.875" ry="8.352" transform="translate(731.971 596.798)" fill="#ccc"/>
    <path id="Path_5" data-name="Path 5" d="M524.6,623.345H401.218c-11.956-.015-21.644-10.29-21.657-22.969V511.285c.013-12.679,9.7-22.955,21.657-22.969H524.6c11.956.014,21.644,10.289,21.658,22.969v89.092C546.244,613.056,536.555,623.331,524.6,623.345Z" transform="translate(-137.836 -134.432)" fill="#e3f0ff"/>
    <path id="Path_6" data-name="Path 6" d="M670.68,623.923H547.3c-11.956-.014-21.644-10.29-21.658-22.969V511.863c.013-12.68,9.7-22.955,21.658-22.969H670.68c11.956.014,21.644,10.289,21.658,22.969v89.092C692.324,613.634,682.636,623.909,670.68,623.923Z" transform="translate(-117.876 -134.313)" fill="#e3f0ff"/>
    <path id="Path_7" data-name="Path 7" d="M816.761,624.5H693.378c-11.955-.014-21.644-10.29-21.657-22.969V512.44c.014-12.679,9.7-22.955,21.657-22.969H816.761c11.956.014,21.644,10.29,21.658,22.969v89.092C838.4,614.211,828.716,624.486,816.761,624.5Z" transform="translate(-97.916 -134.194)" fill="#e3f0ff"/>
    <rect id="Rectangle_8" data-name="Rectangle 8" width="543.405" height="120.413" transform="translate(222.692 484.042)" fill="#e3f0ff"/>
    <path id="Path_8" data-name="Path 8" d="M385.582,722.618H361.955c-11.942,0-21.657-11.7-21.657-26.08V570.883h45.284Z" transform="translate(-143.201 -117.467)" fill="#e3f0ff"/>
    <path id="Path_9" data-name="Path 9" d="M841.428,725.939H817.8V554.716h45.284V696.51C863.085,712.738,853.369,725.939,841.428,725.939Z" transform="translate(-77.956 -120.789)" fill="#e3f0ff"/>
    <path id="Path_10" data-name="Path 10" d="M546.835,627.8h-166.7V590.217q83.349-50.706,166.7,0Z" transform="translate(-137.757 -118.704)" fill="#adc4fb"/>
    <path id="Path_11" data-name="Path 11" d="M692.915,628.38h-166.7V590.794q83.349-50.706,166.7,0Z" transform="translate(-117.797 -118.585)" fill="#adc4fb"/>
    <path id="Path_12" data-name="Path 12" d="M839,628.958H672.3V591.371q83.349-50.706,166.7,0Z" transform="translate(-97.837 -118.466)" fill="#adc4fb"/>
    <ellipse id="Ellipse_5" data-name="Ellipse 5" cx="38.721" cy="41.066" rx="38.721" ry="41.066" transform="translate(171.502 403.302)" fill="#adc4fb"/>
    <ellipse id="Ellipse_6" data-name="Ellipse 6" cx="38.721" cy="41.066" rx="38.721" ry="41.066" transform="translate(738.533 401.911)" fill="#adc4fb"/>
    <path id="Path_13" data-name="Path 13" d="M753.216,497.318a13.46,13.46,0,0,1,.122,1.994l46.413,33.927,12.377-6.214,11.285,18.585-20.9,13.26a8.7,8.7,0,0,1-10.853-1.208l-47-46.269a11.569,11.569,0,0,1-12.831-4.665,13.286,13.286,0,0,1-.426-14.378,11.646,11.646,0,0,1,12.529-5.51,12.371,12.371,0,0,1,9.293,10.479Z" transform="translate(-90.023 -134.793)" fill="#ffb8b8"/>
    <path id="Path_14" data-name="Path 14" d="M792.116,525.8a5.339,5.339,0,0,1,2.781-3.421l23.338-11.341a13.722,13.722,0,0,1,19.666,4.348,15.628,15.628,0,0,1-4.1,20.857l-19.294,18.093a4.922,4.922,0,0,1-4.076,1.311,5.093,5.093,0,0,1-3.6-2.416l-14.092-22.962a5.7,5.7,0,0,1-.625-4.469Z" transform="translate(-81.493 -130.27)" fill="#6c63ff"/>
    <path id="Path_15" data-name="Path 15" d="M752.743,499.781l-.233.018-.637-9.336c-.2-2.984-2.024-5.277-4.066-5.12h0l-13.533,1.039c-2.042.157-5.8,2.877-5.6,5.861l.164,2.4,3.331,48.816c.2,2.984,4.291,5.1,6.333,4.946h0l13.533-1.039c2.042-.156,3.532-2.7,3.328-5.687h0l-2.4-35.239.233-.018Z" transform="translate(-90.135 -135.044)" fill="#3f3d56"/>
    <path id="Path_16" data-name="Path 16" d="M750.693,490.323l3.489,51.146c.152,2.229-.961,4.13-2.486,4.247l-13.6,1.043c-1.525.117-2.884-1.595-3.036-3.824l-3.49-51.146c-.152-2.229.961-4.131,2.486-4.248l1.649-.127a2.292,2.292,0,0,0,.892,2.445.958.958,0,0,0,.5.1l7.753-.595c.725-.057,1.253-.961,1.18-2.021a2.71,2.71,0,0,0-.146-.714l1.766-.135C749.183,486.382,750.542,488.094,750.693,490.323Z" transform="translate(-89.74 -134.806)" fill="#fff"/>
    <path id="Path_17" data-name="Path 17" d="M434.1,399.537l-4.485-13.992,48.755-25.006,6.62,20.652Z" transform="translate(36.089 74.079)" fill="#ffb8b8"/>
    <path id="Path_18" data-name="Path 18" d="M572.055,602.318,557.593,557.2l.538-.194c9.145-3.3,19.078,1.892,22.187,11.59h0l8.832,27.556Z" transform="translate(-113.51 -120.522)" fill="#2f2e41"/>
    <path id="Path_19" data-name="Path 19" d="M770.948,609.326a56.653,56.653,0,0,1-30.226-6.711l-57.331-41.363-66.943,26.29a7.284,7.284,0,0,1-9.221-4.4l-3.281-8.37a7.984,7.984,0,0,1,3.8-10.155l63.955-30.46a35.413,35.413,0,0,1,24.446-2.242l88.785,23.995L808.4,585.465l-.261.381C796.616,602.7,782.95,608.4,770.948,609.326Z" transform="translate(-107.256 -125.724)" fill="#2f2e41"/>
    <ellipse id="Ellipse_7" data-name="Ellipse 7" cx="27.917" cy="29.607" rx="27.917" ry="29.607" transform="translate(708.286 300.874)" fill="#ffb8b8"/>
    <path id="Path_20" data-name="Path 20" d="M794.786,605.019l-44.931-35.462,30.642-23.1c-.876-2.992-4.764-20.095,16.5-31.753,6.731-3.69,11.58-6.866,14.414-9.44A20.764,20.764,0,0,1,843,509.1a24.014,24.014,0,0,1,3.158,20.175c-4.434,15.286-11.5,35.54-19.965,45.227a270.934,270.934,0,0,1-31.066,30.248Z" transform="translate(-87.24 -132.1)" fill="#1e90ff"/>
    <path id="Path_21" data-name="Path 21" d="M440.368,409.823l-4.485-13.993,48.755-25.005,6.62,20.651Z" transform="translate(36.945 76.193)" fill="#ffb8b8"/>
    <path id="Path_22" data-name="Path 22" d="M578.322,612.6l-14.461-45.117.538-.194c9.145-3.3,19.078,1.892,22.187,11.59h0l8.833,27.556Z" transform="translate(-112.654 -118.409)" fill="#2f2e41"/>
    <path id="Path_23" data-name="Path 23" d="M777.215,619.612a56.657,56.657,0,0,1-30.226-6.712l-57.33-41.364-66.943,26.29a7.285,7.285,0,0,1-9.221-4.4l-3.281-8.37a7.984,7.984,0,0,1,3.8-10.156l63.955-30.46a35.412,35.412,0,0,1,24.446-2.242L791.2,566.192l23.468,29.558-.261.381C802.884,612.989,789.218,618.691,777.215,619.612Z" transform="translate(-106.399 -123.611)" fill="#2f2e41"/>
    <path id="Path_24" data-name="Path 24" d="M748.357,525.9a12.915,12.915,0,0,1,.915,1.746l55.64,9.584,8.677-11.236,17.7,11.671L817.752,559.14a8.832,8.832,0,0,1-10.3,3.836L746.3,542.507a11.4,11.4,0,0,1-13.478,1.611,12.876,12.876,0,0,1-6.189-12.8,12.407,12.407,0,0,1,9.1-10.669,11.621,11.621,0,0,1,12.628,5.25Z" transform="translate(-90.428 -127.858)" fill="#ffb8b8"/>
    <path id="Path_25" data-name="Path 25" d="M795.172,537.346a5.653,5.653,0,0,1,1.131-4.355l16.513-20.846a13.748,13.748,0,0,1,19.528-5,15.6,15.6,0,0,1,4.716,20.71l-10.131,25.112A5.238,5.238,0,0,1,823.774,556a4.863,4.863,0,0,1-4.228-.55l-22-14.353a5.439,5.439,0,0,1-2.37-3.754Z" transform="translate(-81.057 -131.018)" fill="#1e90ff"/>
    <path id="Path_26" data-name="Path 26" d="M810.964,508.976a67.135,67.135,0,0,0,12.817-38.652,36.766,36.766,0,0,1-12.737,6.525c-4.878,1.378-10.241,1.655-14.834-.564-6.466-3.124-10.29-11.09-9.557-18.585a22.879,22.879,0,0,1,11.977-17.552,26.775,26.775,0,0,1,20.763-1.333,23.575,23.575,0,0,1,26.522-3.754c9.882,5.144,15.347,17.055,16.294,28.686s-1.87,23.2-4.663,34.487l-.315,1.276c-.87,3.516-3.4,10.26-3.4,10.26s-14.681-3.073-20.513-5.042C824.865,507.968,810.964,508.976,810.964,508.976Z" transform="translate(-82.224 -145.887)" fill="#2f2e41"/>
    <path id="Path_27" data-name="Path 27" d="M748.047,498.716l-11.962.918a1.16,1.16,0,0,1-1.215-1.115,1.184,1.184,0,0,1,1.051-1.289l11.962-.918a1.16,1.16,0,0,1,1.216,1.115A1.184,1.184,0,0,1,748.047,498.716Z" transform="translate(-89.288 -132.79)" fill="#3f3d56"/>
    <path id="Path_28" data-name="Path 28" d="M748.408,503.7l-11.962.918a1.161,1.161,0,0,1-1.216-1.115,1.184,1.184,0,0,1,1.052-1.289l11.962-.918a1.161,1.161,0,0,1,1.216,1.115A1.185,1.185,0,0,1,748.408,503.7Z" transform="translate(-89.239 -131.765)" fill="#3f3d56"/>
    <path id="Path_29" data-name="Path 29" d="M748.768,508.69l-11.962.918a1.161,1.161,0,0,1-1.216-1.115,1.185,1.185,0,0,1,1.052-1.289l11.962-.918a1.161,1.161,0,0,1,1.216,1.115A1.184,1.184,0,0,1,748.768,508.69Z" transform="translate(-89.189 -130.74)" fill="#3f3d56"/>
    <path id="Path_31" data-name="Path 31" d="M642.81,393.824H528.01c-5.647-.007-10.223-4.86-10.23-10.849V278.1c.006-5.989,4.583-10.842,10.23-10.849h114.8c5.647.007,10.223,4.86,10.23,10.849V382.975C653.033,388.964,648.457,393.817,642.81,393.824ZM528.01,269.661a8.217,8.217,0,0,0-7.957,8.438V382.975a8.217,8.217,0,0,0,7.956,8.438h114.8a8.217,8.217,0,0,0,7.956-8.438V278.1a8.217,8.217,0,0,0-7.956-8.438Z" transform="translate(-118.95 -179.854)" fill="#e3f0ff"/>
    <path id="Path_32" data-name="Path 32" d="M623.939,374.776H542.708c-5.333-.006-9.656-4.59-9.661-10.246V291c.006-5.656,4.328-10.24,9.661-10.246H623.94c5.333.006,9.655,4.59,9.662,10.246V364.53c-.006,5.656-4.328,10.24-9.661,10.246Z" transform="translate(-116.864 -177.08)" fill="#e3f0ff"/>
    <ellipse id="Ellipse_8" data-name="Ellipse 8" cx="5.683" cy="6.027" rx="5.683" ry="6.027" transform="translate(461.345 59.671)" fill="#e3f0ff"/>
    <path id="Path_33" data-name="Path 33" d="M444.391,78.424,432.445,57.253,420.567,78.421l-1.954-1.232,13.826-24.64,13.9,24.636Z" transform="translate(34.586 10.797)" fill="#e3f0ff"/>
    <path id="Path_34" data-name="Path 34" d="M591.944,313.675a26.833,26.833,0,0,0-.563-5.425H574.327a4.69,4.69,0,0,0-4.547,4.822V338.9C582.263,337.959,591.939,326.947,591.944,313.675Z" transform="translate(-111.845 -171.429)" fill="#1e90ff"/>
    <path id="Path_35" data-name="Path 35" d="M571.287,343.791c-13.114,0-24-10.735-24.95-24.607s8.373-26.162,21.351-28.159S592.894,298,595.7,311.589l.3,1.463H577.539a3.522,3.522,0,0,0-3.41,3.616v26.949l-1.254.094C572.349,343.752,571.822,343.791,571.287,343.791Zm0-50.63c-12.555,0-22.733,10.794-22.733,24.109s10.178,24.109,22.733,24.109c.191,0,.38-.006.568-.015v-24.7a5.87,5.87,0,0,1,5.683-6.027h15.6C590.307,300.325,581.417,293.212,571.287,293.161Z" transform="translate(-115.057 -175.026)" fill="#fff"/>
    <path id="Path_36" data-name="Path 36" d="M601.742,348.236H574.463a5.87,5.87,0,0,1-5.683-6.027v-4.228l1.057-.079a22.359,22.359,0,0,0,16.6-9.591,25.192,25.192,0,0,0,3.974-19.6l-.3-1.463h11.637a5.87,5.87,0,0,1,5.683,6.027v28.931A5.87,5.87,0,0,1,601.742,348.236ZM571.053,340.2v2.006a3.521,3.521,0,0,0,3.41,3.616h27.279a3.522,3.522,0,0,0,3.41-3.616V313.277a3.522,3.522,0,0,0-3.41-3.616H592.89a27.846,27.846,0,0,1,.326,4.219c-.043,13.458-9.56,24.76-22.163,26.323Z" transform="translate(-111.982 -171.635)" fill="#fff"/>
  </g>
</svg>
