<svg width="1105" height="748" viewBox="0 0 1105 748" fill="none" xmlns="http://www.w3.org/2000/svg">
<g clip-path="url(#clip0)">
<path d="M171.068 234.401V271.905C185.123 271.905 198.602 278.162 208.541 289.298C218.479 300.434 224.062 315.538 224.062 331.287C224.062 347.036 218.479 362.14 208.541 373.276C198.602 384.412 185.123 390.669 171.068 390.669V428.173H343.996V234.401H171.068Z" fill="#F2F2F2"/>
<path d="M171.068 378.167C194.174 378.167 212.906 357.178 212.906 331.287C212.906 305.396 194.174 284.407 171.068 284.407C147.962 284.407 129.231 305.396 129.231 331.287C129.231 357.178 147.962 378.167 171.068 378.167Z" fill="#F2F2F2"/>
<path d="M805.136 378.22L737.267 331.344V693.827H805.136V378.22Z" fill="#F2F2F2"/>
<path d="M633.138 693.827H701.008V306.301L633.138 259.425V693.827Z" fill="#F2F2F2"/>
<path d="M596.879 234.38L257.532 0V211.482H366.309V455.259H257.532V693.827H596.879V234.38Z" fill="#F2F2F2"/>
<path d="M841.395 403.264V693.827H876.725L972.486 493.805L841.395 403.264Z" fill="#F2F2F2"/>
<path d="M973.242 555.157C916.92 602.333 901.04 685.213 901.04 685.213C901.04 685.213 976.475 691.608 1032.8 644.433C1089.12 597.257 1105 514.376 1105 514.376C1105 514.376 1029.56 507.982 973.242 555.157Z" fill="#3F3D56"/>
<path d="M901.083 684.414C901.083 684.414 900.256 683.897 898.76 682.867C897.567 682.045 895.929 680.898 893.95 679.433C876.251 666.366 830.403 627.929 811.597 568.625C788.069 494.373 815.851 415.527 815.851 415.527C815.851 415.527 876.456 453.704 902.2 522.277C903.322 525.23 904.36 528.244 905.337 531.315C925.811 595.922 907.436 664.005 902.319 680.6C901.549 683.086 901.083 684.414 901.083 684.414Z" fill="#1E90FF"/>
<path d="M901.357 686.758L900.494 686.057C899.878 685.558 838.751 635.236 823.045 558.961C807.337 482.686 842.607 407.441 842.965 406.69L843.467 405.636L844.33 406.337C844.946 406.835 906.074 457.157 921.78 533.432C937.487 609.707 902.218 684.953 901.859 685.704L901.357 686.758ZM844.11 408.757C839.871 418.234 810.332 487.962 824.857 558.493C839.38 629.024 893.198 677.198 900.714 683.636C904.953 674.16 934.493 604.431 919.968 533.9C905.444 463.37 851.626 415.195 844.11 408.757Z" fill="#3F3D56"/>
<path opacity="0.1" d="M902.319 680.601C900.945 681.497 899.746 682.251 898.76 682.867C896.589 684.196 895.385 684.865 895.385 684.865C895.385 684.865 894.815 682.946 893.95 679.433C889.182 660.218 875.53 593.247 898.378 531.736C899.58 528.513 900.854 525.361 902.2 522.277C903.322 525.23 904.36 528.244 905.337 531.316C925.811 595.922 907.436 664.005 902.319 680.601Z" fill="black"/>
<path d="M996.753 577.232C969.742 649.982 901.926 687.55 901.926 687.55C901.926 687.55 877.902 607.168 904.913 534.419C931.923 461.669 999.739 424.101 999.739 424.101C999.739 424.101 1023.76 504.483 996.753 577.232Z" fill="#1E90FF"/>
<path d="M998.365 426.907L901.728 685.042L903.442 685.848L1000.08 427.713L998.365 426.907Z" fill="#3F3D56"/>
<path d="M1094.74 708.924C1094.74 718.68 1044.66 727.604 961.858 734.454C946.802 735.694 930.664 736.867 913.555 737.972C898.764 738.924 883.266 739.819 867.062 740.657C851.356 741.456 835.051 742.198 818.147 742.884C764.747 745.06 705.723 746.623 643.016 747.405C627.801 747.592 612.378 747.739 596.748 747.847C580.478 747.949 564.019 748 547.372 748C245.064 748 0 730.51 0 708.924C0 687.338 245.064 669.849 547.372 669.849C677.516 669.849 797.043 673.095 890.982 678.5C894.439 678.704 897.863 678.902 901.251 679.095C901.271 679.108 901.294 679.114 901.317 679.112C1019.65 686.284 1094.74 696.976 1094.74 708.924Z" fill="#3F3D56"/>
<path opacity="0.15" d="M1094.74 708.924C1094.74 718.68 1044.66 727.604 961.858 734.454C946.802 735.694 930.664 736.867 913.555 737.972C898.764 738.924 883.266 739.819 867.062 740.657C851.356 741.456 835.051 742.198 818.147 742.884C764.747 745.06 705.723 746.623 643.016 747.405C627.801 747.592 612.378 747.739 596.748 747.847C580.478 747.949 564.019 748 547.372 748C245.064 748 0 730.51 0 708.924C0 687.338 245.064 669.849 547.372 669.849C677.516 669.849 797.043 673.095 890.982 678.5C894.439 678.704 897.863 678.902 901.251 679.095C901.271 679.108 901.294 679.114 901.317 679.112C1019.65 686.284 1094.74 696.976 1094.74 708.924Z" fill="black"/>
<path d="M1052.67 702.047C1052.67 710.204 1005.98 717.663 928.789 723.393C914.759 724.424 899.707 725.404 883.762 726.331C869.975 727.123 855.527 727.869 840.419 728.571C825.776 729.248 810.575 729.87 794.816 730.436C745.03 732.259 690 733.561 631.539 734.217C617.361 734.374 602.984 734.495 588.41 734.582C573.236 734.676 557.893 734.721 542.379 734.717C260.544 734.717 32.0753 720.091 32.0753 702.047C32.0753 684.003 260.544 669.377 542.379 669.377C604.698 669.377 664.405 670.095 719.611 671.408H719.751C771.964 672.648 820.151 674.419 862.714 676.617C865.94 676.784 869.132 676.947 872.29 677.107C872.308 677.123 872.332 677.13 872.355 677.128C891.851 678.19 910.092 679.336 926.901 680.565C927.087 680.576 927.273 680.597 927.459 680.607C1005.45 686.347 1052.67 693.838 1052.67 702.047Z" fill="#3F3D56"/>
<path opacity="0.1" d="M926.902 680.565C919.994 730.894 876.436 714.028 823.731 714.028C768.05 714.028 722.587 732.853 719.751 671.408C771.964 672.648 820.151 674.419 862.714 676.617C865.94 676.784 869.132 676.947 872.29 677.107C872.308 677.123 872.332 677.13 872.355 677.127C891.851 678.19 910.092 679.336 926.902 680.565Z" fill="black"/>
<path d="M294.978 665.255C294.978 683.399 285.353 689.734 273.478 689.734C273.203 689.734 272.928 689.73 272.655 689.723C272.105 689.71 271.559 689.681 271.02 689.639C260.303 688.79 251.978 682.129 251.978 665.255C251.978 647.795 271.889 625.761 273.389 624.127L273.391 624.125C273.448 624.061 273.478 624.03 273.478 624.03C273.478 624.03 294.978 647.112 294.978 665.255Z" fill="#1E90FF"/>
<path d="M272.695 686.958L280.558 674.647L272.675 688.311L272.655 689.723C272.105 689.71 271.559 689.681 271.02 689.639L271.867 671.488L271.861 671.346L271.875 671.321L271.956 669.605L264.053 655.908L271.98 668.319L272 668.683L272.639 654.968L265.873 640.815L272.722 652.563L273.389 624.127L273.391 624.03V624.125L273.28 646.547L280.016 637.657L273.253 648.478L273.074 660.758L279.365 648.973L273.049 662.565L272.95 669.392L282.078 652.988L272.914 671.774L272.695 686.958Z" fill="#3F3D56"/>
<path d="M719.602 652.566C719.602 583.523 766.222 527.552 823.731 527.552C881.239 527.552 927.859 583.523 927.859 652.566C927.859 721.609 881.239 701.53 823.731 701.53C766.222 701.53 719.602 721.609 719.602 652.566Z" fill="#3F3D56"/>
<path d="M142.604 570.2H140.744V711.029H142.604V570.2Z" fill="#3F3D56"/>
<path d="M141.674 590.116C151.49 590.116 159.447 581.199 159.447 570.2C159.447 559.202 151.49 550.285 141.674 550.285C131.858 550.285 123.901 559.202 123.901 570.2C123.901 581.199 131.858 590.116 141.674 590.116Z" fill="#3F3D56"/>
<path d="M141.674 656.996C141.674 656.996 139.135 595.806 87.0858 602.918L141.674 656.996Z" fill="#3F3D56"/>
<path d="M659.183 593.372C659.647 595.211 660.165 597.037 660.718 598.85C658.236 596.116 655.8 593.307 653.318 590.59C654.314 590.938 655.307 591.285 656.245 591.697C657.269 592.152 658.252 592.713 659.183 593.372ZM647.16 584.241C632.531 569.988 615.58 558.953 600.588 545.134C608.775 549.647 616.738 554.906 624.637 559.949C634.007 565.93 643.489 571.679 653.081 577.196C651.519 579.939 649.51 582.329 647.16 584.241ZM653.418 548.35C653.651 548.084 653.884 547.815 654.118 547.545C654.125 549.571 654.138 551.464 654.16 553.183C652.849 552.696 651.542 552.196 650.239 551.684C651.36 550.648 652.421 549.535 653.418 548.35ZM524.553 586.938C530.582 579.308 535.819 570.937 540.164 561.985C545.972 573.355 555.409 581.553 563.437 591.075C550.503 589.162 537.549 587.583 524.553 586.938Z" fill="url(#paint0_linear)"/>
<path d="M109.034 692.341C109.034 710.486 99.4093 716.82 87.5344 716.82C87.2593 716.82 86.9843 716.816 86.7112 716.809C86.1611 716.796 85.6149 716.767 85.0767 716.725C74.3594 715.876 66.0344 709.215 66.0344 692.341C66.0344 674.882 85.9454 652.848 87.4453 651.214L87.4473 651.211C87.5047 651.147 87.5344 651.116 87.5344 651.116C87.5344 651.116 109.034 674.199 109.034 692.341Z" fill="#1E90FF"/>
<path d="M86.7508 714.044L94.6146 701.734L86.731 715.397L86.7112 716.809C86.1611 716.796 85.6149 716.767 85.0767 716.725L85.9237 698.574L85.9177 698.432L85.9316 698.408L86.0127 696.691L78.1093 682.995L86.0364 695.405L86.0562 695.769L86.6954 682.055L79.9298 667.901L86.7785 679.649L87.4453 651.214L87.4473 651.116V651.211L87.3365 673.633L94.0725 664.744L87.3088 675.564L87.1307 687.844L93.4214 676.059L87.105 689.651L87.0061 696.478L96.1344 680.075L86.9704 698.86L86.7508 714.044Z" fill="#3F3D56"/>
<path d="M119.934 547.978C125.068 547.978 129.231 543.314 129.231 537.56C129.231 531.806 125.068 527.142 119.934 527.142C114.799 527.142 110.637 531.806 110.637 537.56C110.637 543.314 114.799 547.978 119.934 547.978Z" fill="#1E90FF"/>
<path d="M717.732 391.743C717.732 391.743 751.46 383.376 755.179 416.713C758.897 450.05 737.267 456.343 737.267 456.343L723.568 460.468L670.574 444.841L678.012 420.88L717.732 391.743Z" fill="#2F2E41"/>
<path d="M705.578 393.582C730.75 393.582 751.156 370.717 751.156 342.511C751.156 314.305 730.75 291.439 705.578 291.439C680.406 291.439 660 314.305 660 342.511C660 370.717 680.406 393.582 705.578 393.582Z" fill="#2F2E41"/>
<path d="M545.419 448.562L554.68 450.649L586.166 502.819L572.275 504.905L545.419 448.562Z" fill="#2F2E41"/>
<path d="M321.424 660.228C323.921 669.436 326.996 678.434 330.627 687.156C341.064 684.708 351.331 681.43 361.352 677.346C361.661 677.22 355.605 668.345 354.969 667.62C352.57 664.885 349.464 661.688 346.293 660.142C343.094 658.583 339.155 659.773 335.732 659.969C330.967 660.241 326.198 660.328 321.424 660.228Z" fill="#FBBEBE"/>
<path d="M346.347 674.164C341.127 672.334 337.955 666.449 335.832 660.773C333.709 655.097 331.997 648.908 327.97 644.743C326.427 644.825 325.184 646.23 324.421 647.743C323.657 649.256 323.203 650.962 322.321 652.391C320.641 655.11 317.689 656.424 315.578 658.73C313.364 661.147 312.154 664.567 309.863 666.891C306.985 669.809 302.916 670.534 299.14 671.499C293.3 672.994 287.659 675.337 282.36 678.47C280.408 679.789 278.321 680.837 276.144 681.592C273.749 682.107 271.296 682.199 268.874 681.864L252.179 680.531C250.694 680.316 249.186 680.39 247.723 680.749C244.291 681.829 242.16 686.121 242.412 690.126C242.664 694.131 244.887 697.719 247.695 700.191C250.601 702.521 253.807 704.342 257.203 705.589C271.746 711.741 286.719 716.533 301.967 719.918L301.976 723.62C312.579 729.463 324.236 732.504 336.052 732.511C336.925 732.584 337.802 732.414 338.602 732.015C339.774 731.303 340.316 729.769 340.75 728.351C344.755 715.225 347.099 701.536 347.713 687.682C348.01 684.169 347.766 680.626 346.994 677.206C346.085 673.838 349.216 675.253 346.319 673.935" fill="#2F2E41"/>
<path d="M666.546 603.641C617.048 606.962 568.126 590.727 518.564 588.992C512.403 588.776 506.174 588.792 500.157 590.306C493.793 591.908 487.86 595.135 481.941 598.22C455.36 612.078 427.861 623.557 400.395 635.02L368.845 648.188C362.54 650.819 356.007 653.491 349.296 653.032C346.287 652.826 342.594 652.316 340.902 655.125C335.769 663.646 338.195 676.165 341.586 685.727C342.687 688.831 344.549 692.18 347.499 692.534C349.576 692.782 351.507 691.435 353.525 690.829C359.268 689.106 364.993 693.434 370.904 694.139C378.205 695.01 384.986 690.349 391.878 687.495C403.308 682.761 415.806 682.91 427.82 680.668C447.966 676.908 466.638 666.426 484.092 654.484C490.738 649.937 497.463 645.065 505.098 643.402C513.877 641.49 522.894 644.024 531.501 646.753C552.025 653.26 572.229 660.969 592.032 669.849C602.459 674.525 612.811 679.538 623.659 682.773C647.126 689.695 671.95 688.074 694.54 678.142C702.463 674.633 711.072 668.431 711.526 658.853C711.784 653.392 708.005 648.58 705.479 643.91C703.859 640.915 702.239 637.919 700.475 635.029C691.939 621.047 681.582 602.632 666.546 603.641Z" fill="#2F2E41"/>
<path opacity="0.1" d="M666.546 603.641C617.048 606.962 568.126 590.727 518.564 588.992C512.403 588.776 506.174 588.792 500.157 590.306C493.793 591.908 487.86 595.135 481.941 598.22C455.36 612.078 427.861 623.557 400.395 635.02L368.845 648.188C362.54 650.819 356.007 653.491 349.296 653.032C346.287 652.826 342.594 652.316 340.902 655.125C335.769 663.646 338.195 676.165 341.586 685.727C342.687 688.831 344.549 692.18 347.499 692.534C349.576 692.782 351.507 691.435 353.525 690.829C359.268 689.106 364.993 693.434 370.904 694.139C378.205 695.01 384.986 690.349 391.878 687.495C403.308 682.761 415.806 682.91 427.82 680.668C447.966 676.908 466.638 666.426 484.092 654.484C490.738 649.937 497.463 645.065 505.098 643.402C513.877 641.49 522.894 644.024 531.501 646.753C552.025 653.26 572.229 660.969 592.032 669.849C602.459 674.525 612.811 679.538 623.659 682.773C647.126 689.695 671.95 688.074 694.54 678.142C702.463 674.633 711.072 668.431 711.526 658.853C711.784 653.392 708.005 648.58 705.479 643.91C703.859 640.915 702.239 637.919 700.475 635.029C691.939 621.047 681.582 602.632 666.546 603.641Z" fill="black"/>
<path d="M416.457 662.928C424.205 665.891 432.021 668.615 439.905 671.101C444.318 662.981 452.574 657.332 454.456 648.05C454.572 647.646 454.573 647.211 454.457 646.807C454.256 646.41 453.944 646.097 453.57 645.917C447.923 642.411 441.652 640.352 435.209 639.888C430.121 639.528 427.8 645.481 425.493 649.664C424.559 651.358 418.53 663.721 416.457 662.928Z" fill="#FBBEBE"/>
<path d="M427.318 657.001C422.742 655.927 418.264 653.171 415.928 648.609C414.833 646.472 413.669 643.592 411.484 643.753C409.456 643.903 408.524 646.614 408.067 648.846C406.357 657.204 404.677 665.628 401.677 673.51C398.676 681.392 394.238 688.793 387.977 693.672C385.106 695.91 381.905 697.581 379.099 699.921C376.577 702.023 374.379 704.659 371.593 706.285C369.729 707.242 367.806 708.046 365.838 708.691C362.942 709.821 360.175 711.329 357.594 713.186C355.325 714.663 353.402 716.723 351.981 719.195C351.284 720.442 350.876 721.866 350.795 723.335C350.714 724.804 350.963 726.272 351.519 727.606C352.117 728.704 352.916 729.647 353.863 730.374C354.81 731.101 355.883 731.594 357.013 731.822C359.269 732.258 361.569 732.323 363.842 732.014C372.867 731.269 381.881 730.368 390.895 729.468C394.708 729.193 398.498 728.602 402.234 727.701C404.208 727.167 406.143 726.46 408.11 725.892C411.481 724.918 414.937 724.354 418.416 724.21C419.427 724.114 420.445 724.218 421.423 724.518C423.512 725.282 424.993 727.61 427.149 728.083C428.531 728.231 429.926 728.022 431.226 727.472C437.72 725.482 444.544 725.536 451.265 725.129C454.226 724.95 457.692 724.32 459.05 721.35C460.744 717.646 457.935 713.505 456.816 709.534C456.257 706.996 455.946 704.398 455.887 701.785C455.371 695.327 453.679 689.057 450.916 683.361C448.619 678.634 445.483 673.408 447.097 668.335C447.645 666.613 448.734 665.011 448.626 663.186C448.15 655.172 431.467 657.976 427.318 657.001Z" fill="#2F2E41"/>
<path d="M592.318 514.658C583.547 510.328 576.52 502.507 572.596 492.707C571.769 490.601 571.09 488.402 570.294 486.276C567.698 479.214 563.661 472.932 558.507 467.934C557.218 466.709 555.706 465.54 554.131 465.861C552.62 466.168 551.431 467.843 550.913 469.722C550.47 471.657 550.359 473.668 550.586 475.649C551.027 480.318 551.743 484.949 552.731 489.511L555.13 501.759C555.427 503.643 555.928 505.479 556.623 507.226C557.658 509.287 559.023 511.117 560.65 512.624C562.841 514.885 565.068 517.087 567.33 519.227C570.472 522.606 574.57 524.648 578.914 524.999C588.743 527.041 598.741 529.983 607.035 537.171C606.943 537.092 607 528.957 606.857 528.024C606.477 525.56 606.181 523.119 604.75 521.452C601.534 517.709 596.235 516.609 592.318 514.658Z" fill="#FBBEBE"/>
<path opacity="0.1" d="M592.318 514.658C583.547 510.328 576.52 502.507 572.596 492.707C571.769 490.601 571.09 488.402 570.294 486.276C567.698 479.214 563.661 472.932 558.507 467.934C557.218 466.709 555.706 465.54 554.131 465.861C552.62 466.168 551.431 467.843 550.913 469.722C550.47 471.657 550.359 473.668 550.586 475.649C551.027 480.318 551.743 484.949 552.731 489.511L555.13 501.759C555.427 503.643 555.928 505.479 556.623 507.226C557.658 509.287 559.023 511.117 560.65 512.624C562.841 514.885 565.068 517.087 567.33 519.227C570.472 522.606 574.57 524.648 578.914 524.999C588.743 527.041 598.741 529.983 607.035 537.171C606.943 537.092 607 528.957 606.857 528.024C606.477 525.56 606.181 523.119 604.75 521.452C601.534 517.709 596.235 516.609 592.318 514.658Z" fill="black"/>
<path d="M693.125 420.912C699.773 420.912 705.163 414.84 705.163 407.348C705.163 399.857 699.773 393.784 693.125 393.784C686.476 393.784 681.086 399.857 681.086 407.348C681.086 414.84 686.476 420.912 693.125 420.912Z" fill="#2F2E41"/>
<path d="M685.672 399.154C682.404 398.747 678.775 398.446 676.156 400.686C674.767 402.063 673.657 403.757 672.9 405.654C670.383 410.95 667.901 416.346 666.634 422.181C665.56 427.131 665.381 432.308 664.05 437.179C661.582 446.215 655.257 453.842 654.534 463.261C654.211 467.476 654.84 472.411 652.096 475.298C651.419 475.937 650.695 476.512 649.933 477.018C648.03 478.446 646.416 480.306 645.195 482.477C644.167 484.306 643.376 486.408 641.83 487.692C639.381 489.725 635.317 489.518 634.11 492.663C632.87 495.895 636.017 499.493 635.288 502.917C634.694 505.706 631.92 506.983 630.009 508.878C627.561 511.306 626.442 514.969 625.421 518.459C621.394 519.313 617.25 519.179 613.273 518.068C609.297 516.957 605.582 514.894 602.384 512.021C605.745 521.296 605.817 531.532 605.963 541.549C606.011 544.798 605.92 548.445 603.85 550.708C613.434 550.938 622.782 553.847 632.135 556.216C636.223 557.251 640.661 558.15 644.473 556.191C646.611 554.907 648.525 553.201 650.123 551.155C655.211 545.373 660.549 539.066 661.793 531.046C662.491 526.552 661.815 521.94 662 517.383C662.229 511.736 663.77 506.28 665.089 500.826C667.788 489.663 669.597 478.254 670.495 466.733C671.049 459.623 676.529 453.901 679.414 447.547C684.86 435.552 690.426 423.06 690.836 409.594C690.974 405.091 689.647 399.647 685.672 399.154Z" fill="#2F2E41"/>
<path opacity="0.1" d="M685.672 399.154C682.404 398.747 678.775 398.446 676.156 400.686C674.767 402.063 673.657 403.757 672.9 405.654C670.383 410.95 667.901 416.346 666.634 422.181C665.56 427.131 665.381 432.308 664.05 437.179C661.582 446.215 655.257 453.842 654.534 463.261C654.211 467.476 654.84 472.411 652.096 475.298C651.419 475.937 650.695 476.512 649.933 477.018C648.03 478.446 646.416 480.306 645.195 482.477C644.167 484.306 643.376 486.408 641.83 487.692C639.381 489.725 635.317 489.518 634.11 492.663C632.87 495.895 636.017 499.493 635.288 502.917C634.694 505.706 631.92 506.983 630.009 508.878C627.561 511.306 626.442 514.969 625.421 518.459C621.394 519.313 617.25 519.179 613.273 518.068C609.297 516.957 605.582 514.894 602.384 512.021C605.745 521.296 605.817 531.532 605.963 541.549C606.011 544.798 605.92 548.445 603.85 550.708C613.434 550.938 622.782 553.847 632.135 556.216C636.223 557.251 640.661 558.15 644.473 556.191C646.611 554.907 648.525 553.201 650.123 551.155C655.211 545.373 660.549 539.066 661.793 531.046C662.491 526.552 661.815 521.94 662 517.383C662.229 511.736 663.77 506.28 665.089 500.826C667.788 489.663 669.597 478.254 670.495 466.733C671.049 459.623 676.529 453.901 679.414 447.547C684.86 435.552 690.426 423.06 690.836 409.594C690.974 405.091 689.647 399.647 685.672 399.154Z" fill="black"/>
<path d="M674.397 615.322C664.088 609.826 656.545 599.578 648.21 590.807C632.297 574.064 612.838 562.212 596.107 546.514C585.017 536.109 575.098 523.992 562.911 515.282C552.178 507.623 540.011 502.846 527.359 501.323C525.91 501.045 524.423 501.128 523.006 501.567C521.407 502.358 520.015 503.593 518.959 505.153C513.56 511.98 508.761 519.374 504.629 527.233C483.422 567.572 453.3 601.49 428.344 639.007C427.547 639.889 427.074 641.074 427.019 642.328C426.963 643.582 427.33 644.813 428.046 645.779L433.122 656.926C435.963 663.164 440.514 670.429 446.638 669.19C449.437 668.623 451.667 666.316 453.727 664.109L476.517 639.698L500.411 614.104C514.411 599.108 528.651 583.764 537.777 564.582C544.91 578.444 557.564 587.517 566.247 600.207C569.549 605.033 572.247 610.341 575.195 615.451C579.921 623.642 585.295 631.329 590.661 639.003L618.069 678.204C621.807 683.55 625.649 689.003 630.76 692.629C637.252 697.234 645.146 698.447 652.787 699.214C663.083 700.247 673.421 700.666 683.757 700.469C691.637 700.318 699.764 699.739 706.835 695.817C713.906 691.895 719.715 683.845 719.347 674.975C719.156 670.362 717.367 666.036 715.397 661.986C705.606 641.858 692.812 625.138 674.397 615.322Z" fill="#2F2E41"/>
<path d="M700.533 427.173C705.647 427.173 709.793 422.501 709.793 416.739C709.793 410.976 705.647 406.305 700.533 406.305C695.418 406.305 691.272 410.976 691.272 416.739C691.272 422.501 695.418 427.173 700.533 427.173Z" fill="#2F2E41"/>
<path d="M698.486 408.899C700.743 413.366 700.744 418.925 699.502 423.871C698.26 428.817 695.888 433.291 693.542 437.699C691.233 442.037 688.897 446.415 685.799 450.077C700.093 450.843 713.95 444.561 726.564 436.948C736.712 430.824 746.839 423.264 752.255 411.818C749.088 412.884 745.597 411.832 742.793 409.858C740.07 407.732 737.63 405.184 735.543 402.292L728.367 393.246C726.682 391.276 725.201 389.098 723.954 386.754C722.4 383.548 721.74 379.893 722.059 376.261C719.208 379.605 716.022 382.568 712.563 385.091C707.438 388.829 701.788 391.541 696.651 395.256C694.83 396.574 690.78 398.694 691.822 401.361C692.839 403.962 697.041 406.041 698.486 408.899Z" fill="#FBBEBE"/>
<path opacity="0.1" d="M698.486 408.899C700.743 413.366 700.744 418.925 699.502 423.871C698.26 428.817 695.888 433.291 693.542 437.699C691.233 442.037 688.897 446.415 685.799 450.077C700.093 450.843 713.95 444.561 726.564 436.948C736.712 430.824 746.839 423.264 752.255 411.818C749.088 412.884 745.597 411.832 742.793 409.858C740.07 407.732 737.63 405.184 735.543 402.292L728.367 393.246C726.682 391.276 725.201 389.098 723.954 386.754C722.4 383.548 721.74 379.893 722.059 376.261C719.208 379.605 716.022 382.568 712.563 385.091C707.438 388.829 701.788 391.541 696.651 395.256C694.83 396.574 690.78 398.694 691.822 401.361C692.839 403.962 697.041 406.041 698.486 408.899Z" fill="black"/>
<path d="M698.681 410.479C695.995 415.54 695.419 421.517 698.681 426.129C699.087 426.703 700.595 430.266 701.246 430.299C701.877 430.24 702.462 429.908 702.877 429.374C706.349 425.818 708.892 421.283 711.942 417.266C714.991 413.25 718.838 409.589 723.474 408.78C729.07 407.803 734.473 411.126 739.369 414.331C741.404 415.663 743.514 417.074 744.795 419.299C745.827 421.387 746.435 423.704 746.577 426.085C748.269 440.364 748.231 454.822 748.191 469.227C748.162 479.64 748.127 490.126 746.369 500.349C745.461 505.633 744.096 510.819 743.451 516.152C742.977 520.858 742.785 525.595 742.876 530.331L742.862 550.155C742.744 553.796 742.974 557.44 743.548 561.026C744.389 565.37 746.223 569.38 747.449 573.606C748.713 578.464 749.578 583.441 750.034 588.475L752.455 609.003C753.218 615.468 753.781 622.541 750.292 627.745C748.715 630.098 746.642 631.981 745.043 634.315C739.054 643.055 740.976 655.525 738.477 666.201C736.505 674.02 732.454 680.98 726.862 686.152C722.582 690.227 717.054 693.433 711.545 692.286C704.106 690.739 699.638 682.048 697.61 673.836C695.582 665.625 694.843 656.687 690.448 649.75C686.861 644.085 681.301 640.522 676.275 636.479C671.248 632.435 666.337 627.223 665.243 620.374C664.765 617.382 665.062 614.302 664.779 611.279C664.379 607.449 663.068 603.811 660.983 600.743C658.898 597.675 656.116 595.292 652.928 593.842C649.12 592.182 644.417 591.59 642.273 587.675C647.81 584.179 651.485 577.718 653.421 570.908C655.357 564.098 655.752 556.872 656.133 549.734L657.405 525.879C657.973 515.219 658.231 504.653 662.421 495.073C664.294 490.79 666.624 486.781 668.574 482.543C671.153 476.595 673.356 470.451 675.165 464.157C678.202 454.383 681.24 444.606 683.948 434.709C685.238 429.993 686.478 425.187 688.777 420.987C691.077 416.787 694.376 411.385 698.681 410.479Z" fill="#1E90FF"/>
<path d="M651.407 565.456L657.038 565.683L658.238 556.144C658.395 554.235 658.797 552.362 659.431 550.582C660.359 548.7 661.443 546.919 662.669 545.264C668.214 536.488 667.81 524.834 669.183 514.172C671.015 499.952 676.316 486.64 681.56 473.542L692.495 446.23C694.676 441.594 695.719 436.391 695.519 431.155C695.615 426.933 696.732 411.571 696.829 407.348C696.865 405.786 693.754 406.654 693.124 405.262C691.753 402.229 689.877 410.453 687.316 412.257C684.754 414.061 683.341 417.329 682.253 420.504C679.897 427.384 678.456 434.619 676.26 441.567C674.065 448.514 670.993 455.339 666.052 460.176C663.807 462.374 661.22 464.118 659.1 466.467C652.297 474.006 651.634 485.911 651.395 496.658C651.252 503.048 650.151 565.456 651.407 565.456Z" fill="#2F2E41"/>
<path d="M732.505 399.089C727.034 401.5 724.033 408.148 722.496 414.537C720.958 420.925 720.332 427.734 717.393 433.466C710.523 446.864 693.007 450.768 688.16 465.245C686.574 469.983 686.643 475.18 686.216 480.22C685.337 490.594 682.293 500.616 681.393 510.987C680.696 519.022 681.298 527.12 681.9 535.164L688.021 616.981C688.906 628.799 688.883 641.494 686.188 652.959C692.386 654.313 698.83 652.5 704.58 649.562C710.33 646.625 715.579 642.592 721.114 639.17C730.632 633.287 741.127 629.118 749.462 621.281C750.97 619.964 752.263 618.364 753.281 616.55C754.951 613.315 755.088 609.402 755.883 605.769C756.603 602.87 757.521 600.037 758.627 597.295C761.677 589.05 764.335 580.629 766.59 572.069C768.139 566.388 769.362 560.602 770.252 554.747C770.92 550.083 771.281 545.372 771.641 540.665C772.085 533.297 773.392 526.026 775.528 519.039C780.852 502.377 783.868 484.9 784.468 467.215C784.649 464.66 784.494 462.09 784.008 459.586C783.283 456.48 781.647 453.765 780.305 450.932C777.761 445.563 776.233 439.653 773.832 434.2C768.407 421.879 758.826 412.537 748.789 404.707C743.86 400.862 738.088 396.629 732.505 399.089Z" fill="#2F2E41"/>
<path d="M604.516 532.562C600.279 529.797 596.044 526.82 592.856 522.635C591.328 520.629 590.067 518.379 588.514 516.398C584.736 511.581 579.383 508.594 573.848 507.032C568.314 505.471 562.558 505.234 556.853 505.18C553.036 505.144 549.126 505.205 545.552 506.717C541.979 508.229 538.757 511.488 538.066 515.718C537.235 520.806 540.202 525.765 543.765 529.03C547.08 532.061 550.98 534.183 555.156 535.226C558.563 535.894 562.001 536.346 565.453 536.578C585.725 538.956 603.809 551.319 621.573 562.577C637.175 572.464 653.079 581.708 669.287 590.308C669.93 584.869 670.198 579.382 670.087 573.897C670.004 569.8 669.824 563.555 666.371 561.15C662.347 558.348 655.723 557.704 651.184 556.037C640.739 552.2 630.538 547.576 620.65 542.197C615.168 539.214 609.79 536.002 604.516 532.562Z" fill="#FBBEBE"/>
<path d="M693.125 404.218C713.071 404.218 729.24 386 729.24 363.526C729.24 341.052 713.071 322.834 693.125 322.834C673.178 322.834 657.009 341.052 657.009 363.526C657.009 386 673.178 404.218 693.125 404.218Z" fill="#FBBEBE"/>
<path d="M742.83 445.224C739.604 449.439 737.99 454.868 735.822 459.869C731.362 470.159 724.368 478.991 720.865 489.742C717.17 501.083 717.294 514.573 710.05 523.481C708.791 525.03 707.27 526.525 706.906 528.585C706.69 529.808 706.914 531.116 706.538 532.289C705.5 535.525 700.773 535.688 699.89 538.983C699.632 539.947 699.777 541.014 699.458 541.955C698.733 544.085 696.222 544.411 694.543 545.687C691.038 548.351 691.744 554.547 689.243 558.388C687.263 561.427 683.532 562.445 680.218 561.93C676.904 561.415 673.869 559.637 670.851 558.011C669.814 557.356 668.666 556.953 667.481 556.825C666.082 556.879 664.728 557.397 663.592 558.314C656.92 563.067 653.788 572.481 653.835 581.375C653.881 590.268 656.608 598.837 659.401 607.155C659.782 608.559 660.407 609.864 661.241 610.995C663.453 613.616 667.306 613.193 670.243 611.735C673.181 610.277 675.849 607.983 679.008 607.342C684.597 606.207 690.058 610.51 695.728 610.156C699.882 609.897 703.558 607.19 707.009 604.573C712.517 600.394 718.127 596.111 722.177 590.181C724.656 586.551 726.473 582.412 728.635 578.531C731.415 573.77 734.461 569.211 737.756 564.882L758.581 536.318C763.586 530.214 767.031 522.713 768.556 514.602C770.536 506.989 772.529 499.29 772.872 491.366C773.154 484.844 772.309 478.332 771.36 471.891C770.425 465.55 769.361 459.139 766.875 453.354C762.351 442.824 751.336 434.111 742.83 445.224Z" fill="#2F2E41"/>
<path d="M754.954 326.338C780.126 326.338 800.532 303.473 800.532 275.266C800.532 247.06 780.126 224.195 754.954 224.195C729.782 224.195 709.376 247.06 709.376 275.266C709.376 303.473 729.782 326.338 754.954 326.338Z" fill="#2F2E41"/>
<path d="M794.267 317.557C788.368 322.335 781.533 325.46 774.335 326.671C767.137 327.882 759.785 327.144 752.894 324.518C746.003 321.893 739.773 317.456 734.725 311.579C729.678 305.703 725.96 298.557 723.883 290.74C724.669 297.745 726.743 304.492 729.973 310.553C733.203 316.615 737.52 321.861 742.651 325.959C747.782 330.057 753.615 332.918 759.783 334.362C765.95 335.807 772.318 335.802 778.484 334.35C784.65 332.897 790.481 330.028 795.607 325.923C800.734 321.819 805.045 316.567 808.269 310.501C811.493 304.435 813.559 297.686 814.338 290.68C815.117 283.674 814.591 276.563 812.793 269.796C813.814 278.887 812.633 288.119 809.373 296.522C806.114 304.926 800.896 312.191 794.267 317.557Z" fill="#2F2E41"/>
<path d="M717.732 388.475C736.191 388.475 751.156 371.707 751.156 351.023C751.156 330.338 736.191 313.57 717.732 313.57C699.272 313.57 684.308 330.338 684.308 351.023C684.308 371.707 699.272 388.475 717.732 388.475Z" fill="#2F2E41"/>
<path d="M689.625 362.939C705.987 362.939 719.251 351.316 719.251 336.978C719.251 322.64 705.987 311.017 689.625 311.017C673.264 311.017 660 322.64 660 336.978C660 351.316 673.264 362.939 689.625 362.939Z" fill="#2F2E41"/>
<path d="M701.006 383.708C702.998 381.893 702.643 377.708 700.213 374.36C697.783 371.012 694.199 369.769 692.207 371.584C690.215 373.399 690.57 377.585 693 380.933C695.43 384.281 699.014 385.523 701.006 383.708Z" fill="#FBBEBE"/>
<path d="M664.076 709.009C664.076 727.154 654.451 733.489 642.576 733.489C642.301 733.489 642.026 733.484 641.753 733.478C641.203 733.465 640.657 733.436 640.119 733.394C629.401 732.544 621.076 725.883 621.076 709.009C621.076 691.55 640.987 669.516 642.487 667.882L642.489 667.88C642.547 667.816 642.576 667.784 642.576 667.784C642.576 667.784 664.076 690.867 664.076 709.009Z" fill="#1E90FF"/>
<path d="M641.793 730.713L649.657 718.402L641.773 732.065L641.753 733.478C641.203 733.465 640.657 733.436 640.119 733.394L640.966 715.242L640.96 715.1L640.973 715.076L641.055 713.36L633.151 699.663L641.078 712.074L641.098 712.438L641.737 698.723L634.972 684.57L641.82 696.317L642.487 667.882L642.489 667.784V667.88L642.378 690.302L649.114 681.412L642.351 692.233L642.173 704.513L648.463 692.727L642.147 706.32L642.048 713.147L651.176 696.743L642.012 715.528L641.793 730.713Z" fill="#3F3D56"/>
</g>
<defs>
<linearGradient id="paint0_linear" x1="592.636" y1="598.85" x2="592.636" y2="545.134" gradientUnits="userSpaceOnUse">
<stop stop-color="#808080" stop-opacity="0.25"/>
<stop offset="0.53514" stop-color="#808080" stop-opacity="0.12"/>
<stop offset="1" stop-color="#808080" stop-opacity="0.1"/>
</linearGradient>
<clipPath id="clip0">
<rect width="1105" height="748" fill="white"/>
</clipPath>
</defs>
</svg>
